<svg xmlns="http://www.w3.org/2000/svg" viewBox="0 0 192 192">
  <rect width="192" height="192" fill="#002E5D" rx="32"/>
  <rect x="20" y="20" width="152" height="152" fill="#0052A5" rx="24"/>
  <text x="96" y="130" font-family="Arial, sans-serif" font-size="90" font-weight="bold" text-anchor="middle" fill="#FFFFFF">PB</text>
  <circle cx="150" cy="42" r="18" fill="#00D4FF"/>
  <path d="M 150,30 L 152,32 L 152,38 L 150,40 L 148,38 L 148,32 Z
           M 162,42 L 160,44 L 154,44 L 152,42 L 154,40 L 160,40 Z
           M 150,54 L 148,52 L 148,46 L 150,44 L 152,46 L 152,52 Z
           M 138,42 L 140,40 L 146,40 L 148,42 L 146,44 L 140,44 Z" fill="#002E5D"/>
  <circle cx="150" cy="42" r="5" fill="#002E5D"/>
</svg>